<?xml version="1.0" encoding="UTF-8" standalone="no"?>
<!DOCTYPE svg PUBLIC "-//W3C//DTD SVG 1.1//EN" "http://www.w3.org/Graphics/SVG/1.1/DTD/svg11.dtd">
<svg width="100%" height="100%" viewBox="0 0 476 476" version="1.1" xmlns="http://www.w3.org/2000/svg" xmlns:xlink="http://www.w3.org/1999/xlink" xml:space="preserve" xmlns:serif="http://www.serif.com/" style="fill-rule:evenodd;clip-rule:evenodd;stroke-linejoin:round;stroke-miterlimit:2;">
    <g>
        <path d="M237.883,99.02C236.028,99.601 228.544,105.868 221.508,128.463C215.789,146.828 212.224,170.046 211.199,195L264.567,195C263.542,170.045 259.977,146.828 254.258,128.463C247.222,105.868 239.739,99.601 237.883,99.02Z" style="fill:rgb(250,171,115);fill-rule:nonzero;"/>
        <path d="M268.215,87.684C284.446,110.977 292.964,152.878 294.591,195L362.991,195C356.776,142.619 318.433,100.097 268.215,87.684Z" style="fill:rgb(250,171,115);fill-rule:nonzero;"/>
        <path d="M221.508,291.537C228.544,314.132 236.028,320.399 237.883,320.98C239.738,320.399 247.222,314.132 254.258,291.537C259.977,273.172 263.542,249.954 264.567,225L211.199,225C212.224,249.955 215.789,273.172 221.508,291.537Z" style="fill:rgb(250,171,115);fill-rule:nonzero;"/>
        <path d="M112.776,195L181.176,195C182.803,152.879 191.321,110.977 207.551,87.684C157.333,100.097 118.99,142.619 112.776,195Z" style="fill:rgb(250,171,115);fill-rule:nonzero;"/>
        <path d="M112.776,225C118.991,277.381 157.333,319.903 207.551,332.316C191.321,309.023 182.802,267.122 181.176,225L112.776,225Z" style="fill:rgb(250,171,115);fill-rule:nonzero;"/>
        <path d="M268.215,332.316C318.433,319.904 356.776,277.381 362.99,225L294.59,225C292.964,267.121 284.446,309.023 268.215,332.316Z" style="fill:rgb(250,171,115);fill-rule:nonzero;"/>
        <path d="M372.286,334.882L346.24,349.766L369.23,390L297.883,390L297.883,370L267.883,370L267.883,420L369.6,420L346.24,460.882L372.286,475.766L404.153,420L447.883,420L447.883,390L403.783,390L372.286,334.882Z" style="fill:rgb(250,171,115);fill-rule:nonzero;"/>
        <path d="M57.883,210C57.883,110.748 138.631,30 237.883,30C337.135,30 417.883,110.748 417.883,210L447.883,210C447.883,94.206 353.677,0 237.883,0C122.089,0 27.883,94.206 27.883,210C27.883,325.794 122.089,420 237.883,420L237.883,390C138.631,390 57.883,309.252 57.883,210Z" style="fill:rgb(250,171,115);fill-rule:nonzero;"/>
    </g>
</svg>
